<svg width="100" height="100" fill="none" xmlns="http://www.w3.org/2000/svg"><g clip-path="url(#clip0)" fill="#FD8C3B"><path d="M25.806 16.129c.89 0 1.613.723 1.613 1.613h3.226c0-2.1-1.353-3.874-3.226-4.542v-1.91h-3.225v1.91c-1.873.668-3.226 2.442-3.226 4.542a4.845 4.845 0 004.838 4.839 1.614 1.614 0 010 3.225c-.89 0-1.612-.723-1.612-1.613h-3.226c0 2.1 1.353 3.874 3.226 4.542v1.91h3.225v-1.91c1.873-.668 3.226-2.442 3.226-4.541a4.845 4.845 0 00-4.838-4.84 1.614 1.614 0 010-3.225z"/><path d="M25.806 9.677c6.224 0 11.29 5.067 11.29 11.29 0 2.52-.821 4.912-2.38 6.916l2.548 1.979a14.36 14.36 0 003.058-8.894c0-8.005-6.51-14.516-14.516-14.516a14.36 14.36 0 00-8.893 3.058l1.979 2.548a11.168 11.168 0 016.914-2.38zm0 25.807a14.36 14.36 0 008.894-3.058l-1.979-2.549a11.167 11.167 0 01-6.915 2.381c-6.224 0-11.29-5.066-11.29-11.29 0-2.52.822-4.911 2.38-6.915l-2.548-1.979a14.36 14.36 0 00-3.058 8.894c0 8.004 6.512 14.516 14.516 14.516zm12.097 29.032a5.651 5.651 0 00-5.645 5.645v8.065a5.65 5.65 0 005.645 5.645 5.651 5.651 0 005.645-5.645V70.16a5.651 5.651 0 00-5.645-5.645zm2.42 13.71a2.422 2.422 0 01-2.42 2.42 2.422 2.422 0 01-2.42-2.42V70.16a2.422 2.422 0 012.42-2.42 2.422 2.422 0 012.42 2.42v8.065zM9.677 56.452h3.226v3.226H9.677v-3.226zm8.065 0h3.226v3.226h-3.226v-3.226zm8.064 0h3.226v3.226h-3.226v-3.226zm8.065 0h3.226v3.226H33.87v-3.226zM9.677 64.516h3.226v3.226H9.677v-3.226zm8.065 0h3.226v3.226h-3.226v-3.226zm8.064 0h3.226v3.226h-3.226v-3.226zM9.677 72.58h3.226v3.226H9.677v-3.225zm8.065 0h3.226v3.226h-3.226v-3.225zm8.064 0h3.226v3.226h-3.226v-3.225zM9.677 80.645h3.226v3.226H9.677v-3.226zm8.065 0h3.226v3.226h-3.226v-3.226zm8.064 0h3.226v3.226h-3.226v-3.226zm48.481-49.139l11.098-20.967 2.85 1.509-11.098 20.967-2.85-1.509zm11.197-5.7h3.226v3.226h-3.226v-3.226zm-11.29-11.29h3.225v3.226h-3.225v-3.226z"/><path d="M100 48.387H50v-11.29a4.845 4.845 0 00-4.839-4.839h-1.714a20.816 20.816 0 003.327-11.29c0-1.668-.216-3.283-.585-4.839h9.101l5.663 16.99L76.78 3.225h16.77V0H74.833L61.629 24.946l-4.014-12.043H45.157C41.99 5.334 34.51 0 25.807 0 14.245 0 4.838 9.406 4.838 20.968a20.83 20.83 0 003.327 11.29H4.84A4.845 4.845 0 000 37.097V95.16A4.845 4.845 0 004.839 100H45.16A4.845 4.845 0 0050 95.161v-1.613h50v-45.16zm-50 11.42c5.462.786 9.677 5.485 9.677 11.16 0 5.677-4.215 10.375-9.677 11.162V59.807zM25.806 3.226c9.783 0 17.742 7.96 17.742 17.742S35.588 38.71 25.806 38.71s-17.74-7.96-17.74-17.742 7.96-17.742 17.742-17.742zM10.675 96.774l1.613-3.226h25.426l1.612 3.226h-28.65zm36.1-1.613c0 .89-.723 1.613-1.613 1.613h-2.229l-3.225-6.451H10.293l-3.226 6.451H4.84c-.89 0-1.613-.723-1.613-1.613V37.097c0-.89.723-1.613 1.613-1.613h5.872a21.07 21.07 0 003.973 3.226H6.452v12.903h37.096V38.71H36.93a21.07 21.07 0 003.972-3.226h4.26c.89 0 1.613.723 1.613 1.613V95.16zm-6.451-53.226v6.452H9.677v-6.452h30.646zm56.451 48.388H50v-4.934c7.247-.805 12.903-6.962 12.903-14.421 0-7.46-5.656-13.616-12.903-14.421v-4.934h46.774v38.71z"/><path d="M90.323 62.903h3.225V54.84h-8.064v3.225h4.839v4.84zm3.225 16.129h-3.225v4.839h-4.84v3.226h8.065v-8.065z"/></g><defs><clipPath id="clip0"><path fill="#fff" d="M0 0h100v100H0z"/></clipPath></defs></svg>