<svg width="100" height="100" viewBox="0 0 100 100" fill="none" xmlns="http://www.w3.org/2000/svg">
<g clip-path="url(#clip0)">
<path d="M25.8065 16.129C26.6964 16.129 27.4194 16.852 27.4194 17.7419H30.6452C30.6452 15.6423 29.2922 13.8679 27.4194 13.2001V11.2903H24.1936V13.2001C22.3208 13.8679 20.9678 15.6423 20.9678 17.7419C20.9678 20.4093 23.1391 22.5806 25.8065 22.5806C26.6964 22.5806 27.4194 23.3036 27.4194 24.1935C27.4194 25.0834 26.6964 25.8064 25.8065 25.8064C24.9166 25.8064 24.1936 25.0834 24.1936 24.1935H20.9678C20.9678 26.2931 22.3208 28.0675 24.1936 28.7353V30.6451H27.4194V28.7353C29.2922 28.0675 30.6452 26.2931 30.6452 24.1935C30.6452 21.5261 28.4739 19.3548 25.8065 19.3548C24.9166 19.3548 24.1936 18.6318 24.1936 17.7419C24.1936 16.852 24.9166 16.129 25.8065 16.129Z" fill="#FD8C3B"/>
<path d="M25.8064 9.67747C32.0304 9.67747 37.0967 14.7438 37.0967 20.9678C37.0967 23.4872 36.2745 25.879 34.716 27.8825L37.2645 29.8616C39.2664 27.2871 40.3225 24.2133 40.3225 20.9678C40.3225 12.9631 33.8111 6.45166 25.8064 6.45166C22.5609 6.45166 19.4871 7.50777 16.9126 9.50972L18.8917 12.0582C20.8952 10.4997 23.287 9.67747 25.8064 9.67747Z" fill="#FD8C3B"/>
<path d="M25.8064 35.4839C29.0519 35.4839 32.1257 34.4278 34.7002 32.4259L32.7211 29.8773C30.7176 31.4359 28.3258 32.2581 25.8064 32.2581C19.5824 32.2581 14.5161 27.1918 14.5161 20.9678C14.5161 18.4484 15.3383 16.0566 16.8969 14.0531L14.3483 12.074C12.3464 14.6485 11.2903 17.7223 11.2903 20.9678C11.2903 28.9724 17.8018 35.4839 25.8064 35.4839Z" fill="#FD8C3B"/>
<path d="M37.9032 64.5161C34.79 64.5161 32.2581 67.0481 32.2581 70.1613V78.2258C32.2581 81.339 34.79 83.8709 37.9032 83.8709C41.0164 83.8709 43.5484 81.339 43.5484 78.2258V70.1613C43.5484 67.0481 41.0164 64.5161 37.9032 64.5161ZM40.3226 78.2258C40.3226 79.5599 39.2373 80.6451 37.9032 80.6451C36.5691 80.6451 35.4839 79.5599 35.4839 78.2258V70.1613C35.4839 68.8272 36.5691 67.7419 37.9032 67.7419C39.2373 67.7419 40.3226 68.8272 40.3226 70.1613V78.2258Z" fill="#FD8C3B"/>
<path d="M9.67737 56.4517H12.9032V59.6775H9.67737V56.4517Z" fill="#FD8C3B"/>
<path d="M17.7419 56.4517H20.9677V59.6775H17.7419V56.4517Z" fill="#FD8C3B"/>
<path d="M25.8064 56.4517H29.0322V59.6775H25.8064V56.4517Z" fill="#FD8C3B"/>
<path d="M33.871 56.4517H37.0968V59.6775H33.871V56.4517Z" fill="#FD8C3B"/>
<path d="M9.67737 64.5161H12.9032V67.7419H9.67737V64.5161Z" fill="#FD8C3B"/>
<path d="M17.7419 64.5161H20.9677V67.7419H17.7419V64.5161Z" fill="#FD8C3B"/>
<path d="M25.8064 64.5161H29.0322V67.7419H25.8064V64.5161Z" fill="#FD8C3B"/>
<path d="M9.67737 72.5806H12.9032V75.8064H9.67737V72.5806Z" fill="#FD8C3B"/>
<path d="M17.7419 72.5806H20.9677V75.8064H17.7419V72.5806Z" fill="#FD8C3B"/>
<path d="M25.8064 72.5806H29.0322V75.8064H25.8064V72.5806Z" fill="#FD8C3B"/>
<path d="M9.67737 80.6453H12.9032V83.8711H9.67737V80.6453Z" fill="#FD8C3B"/>
<path d="M17.7419 80.6453H20.9677V83.8711H17.7419V80.6453Z" fill="#FD8C3B"/>
<path d="M25.8064 80.6453H29.0322V83.8711H25.8064V80.6453Z" fill="#FD8C3B"/>
<path d="M74.2865 31.506L85.3847 10.5391L88.2356 12.048L77.1374 33.015L74.2865 31.506Z" fill="#FD8C3B"/>
<path d="M85.4839 25.8064H88.7097V29.0322H85.4839V25.8064Z" fill="#FD8C3B"/>
<path d="M74.1936 14.5161H77.4194V17.7419H74.1936V14.5161Z" fill="#FD8C3B"/>
<path d="M100 48.3871H50V37.0968C50 34.4293 47.8287 32.2581 45.1613 32.2581H43.4468C45.5433 28.9952 46.7742 25.126 46.7742 20.9677C46.7742 19.2997 46.5584 17.6852 46.189 16.129H55.29L60.9533 33.1181L76.7791 3.22581H93.5484V0H74.8338L61.629 24.9464L57.6148 12.9032H45.1566C41.9906 5.33408 34.5112 0 25.8065 0C14.2452 0 4.83871 9.4065 4.83871 20.9677C4.83871 25.126 6.07123 28.9952 8.16611 32.2581H4.83871C2.17128 32.2581 0 34.4293 0 37.0968V95.1613C0 97.8287 2.17128 100 4.83871 100H45.1613C47.8287 100 50 97.8287 50 95.1613V93.5484H100V48.3871ZM50 59.8066C55.4617 60.5933 59.6774 65.2919 59.6774 70.9677C59.6774 76.6436 55.4617 81.3421 50 82.1289V59.8066ZM25.8065 3.22581C35.5886 3.22581 43.5484 11.1856 43.5484 20.9677C43.5484 30.7499 35.5886 38.7097 25.8065 38.7097C16.0243 38.7097 8.06452 30.7499 8.06452 20.9677C8.06452 11.1856 16.0243 3.22581 25.8065 3.22581ZM10.6745 96.7742L12.2874 93.5484H37.7126L39.3255 96.7742H10.6745ZM46.7742 95.1613C46.7742 96.0512 46.0512 96.7742 45.1613 96.7742H42.9325L39.7067 90.3226H10.2933L7.06748 96.7742H4.83871C3.94878 96.7742 3.22581 96.0512 3.22581 95.1613V37.0968C3.22581 36.2068 3.94878 35.4839 4.83871 35.4839H10.7115C11.8967 36.7164 13.2308 37.7953 14.6839 38.7097H6.45161V51.6129H43.5484V38.7097H36.929C38.3821 37.7953 39.7162 36.7164 40.9014 35.4839H45.1613C46.0512 35.4839 46.7742 36.2068 46.7742 37.0968V95.1613ZM40.3226 41.9355V48.3871H9.67742V41.9355H40.3226ZM96.7742 90.3226H50V85.3886C57.247 84.5837 62.9032 78.4274 62.9032 70.9677C62.9032 63.5081 57.247 57.3518 50 56.5469V51.6129H96.7742V90.3226Z" fill="#FD8C3B"/>
<path d="M90.3226 62.9031H93.5484V54.8386H85.4839V58.0644H90.3226V62.9031Z" fill="#FD8C3B"/>
<path d="M93.5484 79.0322H90.3226V83.8709H85.4839V87.0967H93.5484V79.0322Z" fill="#FD8C3B"/>
</g>
<defs>
<clipPath id="clip0">
<rect width="100" height="100" fill="white"/>
</clipPath>
</defs>
</svg>
