<svg width="100" height="100" fill="none" xmlns="http://www.w3.org/2000/svg"><path d="M78.024 12.19a1.58 1.58 0 00-2.213-.079 1.58 1.58 0 00-.077 2.213 35.042 35.042 0 019.409 22.419H73.257c-.229-9.505-2.535-18.407-6.556-25.212C65.205 9 63.53 6.857 61.722 5.129a35.034 35.034 0 018.509 4.398 1.58 1.58 0 002.181-.379 1.58 1.58 0 00-.378-2.182C65.562 2.41 57.942 0 50 0 28.892 0 11.718 17.16 11.692 38.26c-.019.624.35 1.216.917 1.474l30.162 13.71H23.278c-.865 0-1.566.701-1.566 1.566v43.424c0 .865.7 1.566 1.566 1.566h53.444c.865 0 1.566-.701 1.566-1.566V55.01c0-.864-.7-1.566-1.566-1.566H57.23l30.162-13.71a1.577 1.577 0 00.918-1.473A38.178 38.178 0 0078.024 12.19zm-14.02.934c3.743 6.334 5.897 14.671 6.122 23.62H59.908c-.087-9.343-.959-18.085-2.477-24.764-.741-3.263-1.6-5.864-2.57-7.8 3.397 1.492 6.542 4.542 9.143 8.944zM50 3.131c.615 0 2.599 1.715 4.378 9.543 1.468 6.461 2.313 14.958 2.4 24.07H43.223c.087-9.112.93-17.609 2.4-24.07C47.4 4.846 49.384 3.131 50 3.131zm-4.86 1.05c-.971 1.935-1.83 4.536-2.572 7.8-1.517 6.678-2.389 15.42-2.477 24.762H29.873c.226-8.948 2.38-17.285 6.122-23.619 2.601-4.402 5.747-7.452 9.144-8.943zm-6.879.965C36.46 6.87 34.791 9.008 33.3 11.53c-4.02 6.805-6.328 15.707-6.556 25.212H14.857c.642-14.602 10.23-26.92 23.404-31.597zM20.485 39.875h7.27l10.502 8.078-17.772-8.078zm54.672 16.701v40.292H24.843V56.576h18.58v11.795c0 1.225 1.413 1.985 2.435 1.303L50 66.913l4.142 2.761c1.023.682 2.434-.079 2.434-1.303V56.576h18.58zm-28.602 8.87v-8.87h6.89v8.87l-2.577-1.718a1.58 1.58 0 00-1.736 0l-2.577 1.718zM50 53.036L32.892 39.874h34.216L50 53.035zm11.743-5.083l10.501-8.078h7.27l-17.771 8.078z" fill="#FD8C3B"/><path d="M41.086 88.976l-5.01-5.01a1.565 1.565 0 00-2.214 0l-5.01 5.01a1.566 1.566 0 102.213 2.215l2.338-2.338v4.57a1.566 1.566 0 003.132 0v-4.57l2.337 2.338a1.581 1.581 0 002.298-.09 1.58 1.58 0 00-.084-2.125zm30.063 0l-5.01-5.01a1.565 1.565 0 00-2.215 0l-5.01 5.01a1.58 1.58 0 000 2.215 1.581 1.581 0 002.214 0l2.338-2.338v4.57a1.566 1.566 0 003.131 0v-4.57l2.338 2.338a1.581 1.581 0 002.297-.09 1.58 1.58 0 00-.083-2.125zm-7.788-17.16H36.64c-.865 0-1.566.701-1.566 1.566v6.68c0 .865.701 1.567 1.566 1.567h26.72c.865 0 1.566-.701 1.566-1.566v-6.68c0-.865-.701-1.567-1.566-1.567zm-1.566 6.681h-23.59v-3.549h23.59v3.55zm1.566-18.372c-.864 0-1.566.701-1.566 1.566v3.34a1.566 1.566 0 003.132 0v-3.34c0-.865-.701-1.566-1.566-1.566zm5.011 0c-.865 0-1.566.701-1.566 1.566v3.34a1.566 1.566 0 003.131 0v-3.34c0-.865-.7-1.566-1.565-1.566zm-31.733 0c-.865 0-1.566.701-1.566 1.566v3.34a1.566 1.566 0 003.132 0v-3.34c0-.865-.701-1.566-1.566-1.566zm-5.011 0c-.864 0-1.565.701-1.565 1.566v3.34a1.566 1.566 0 003.131 0v-3.34c0-.865-.7-1.566-1.566-1.566z" fill="#FD8C3B"/></svg>