<svg width="100" height="100" viewBox="0 0 100 100" fill="none" xmlns="http://www.w3.org/2000/svg">
<path d="M23.4375 73.4375C24.3 73.4375 25 74.1375 25 75H28.125C28.125 72.4156 26.0219 70.3125 23.4375 70.3125V67.1875H20.3125V70.3125H15.625V75C15.625 77.5844 17.7281 79.6875 20.3125 79.6875H23.4375C24.3 79.6875 25 80.3875 25 81.25V82.8125H20.3125C19.45 82.8125 18.75 82.1125 18.75 81.25H15.625C15.625 83.8344 17.7281 85.9375 20.3125 85.9375V89.0625H23.4375V85.9375H28.125V81.25C28.125 78.6656 26.0219 76.5625 23.4375 76.5625H20.3125C19.45 76.5625 18.75 75.8625 18.75 75V73.4375H23.4375Z" fill="#FD8C3B"/>
<path d="M98.4375 21.875V1.5625H78.125V4.6875H93.1031L65.625 32.1656L54.6875 21.2281L35.9672 39.9484C35.0375 39.3984 33.9688 39.0625 32.8125 39.0625C30.7344 39.0625 29.6313 40.3234 28.9 41.1578C28.2188 41.9359 27.9469 42.1875 27.3391 42.1875C26.7297 42.1875 26.4594 41.9359 25.7766 41.1578C25.0453 40.3234 23.9422 39.0625 21.8656 39.0625C19.7906 39.0625 18.6875 40.325 17.9562 41.1594C17.2781 41.9359 17.0063 42.1875 16.4 42.1875C15.7938 42.1875 15.5234 41.9359 14.8453 41.1594C14.1156 40.325 13.0125 39.0625 10.9375 39.0625C7.49062 39.0625 4.6875 41.8656 4.6875 45.3125C4.6875 46.6547 5.13125 47.9859 5.9375 49.0625L13.5063 59.1531L8.33594 63.6766C4.03125 67.4437 1.5625 72.8844 1.5625 78.6047C1.5625 89.5406 10.4594 98.4375 21.3953 98.4375H22.3531C26.3078 98.4375 29.9859 97.2609 33.0828 95.2594C33.7156 97.1016 35.4469 98.4375 37.5 98.4375H68.75H93.75C96.3344 98.4375 98.4375 96.3344 98.4375 93.75V90.625C98.4375 89.4203 97.9672 88.3313 97.2188 87.5C97.9688 86.6687 98.4375 85.5797 98.4375 84.375V81.25C98.4375 80.0453 97.9672 78.9563 97.2188 78.125C97.9688 77.2937 98.4375 76.2047 98.4375 75V71.875C98.4375 70.6703 97.9672 69.5813 97.2188 68.75C97.9688 67.9187 98.4375 66.8297 98.4375 65.625V62.5C98.4375 59.9156 96.3344 57.8125 93.75 57.8125H92.1875V26.5625H79.6875V57.8125H76.5625V42.1875H64.0625V57.8125H62.5C61.95 57.8125 61.4281 57.925 60.9375 58.1V35.9375H48.4375V67.1875H38.5484C37.6484 65.9109 36.6109 64.7234 35.4141 63.6766L30.2438 59.1531L37.8141 49.0625C38.6188 47.9859 39.0625 46.6547 39.0625 45.3125C39.0625 44.1562 38.7266 43.0875 38.1766 42.1578L54.6875 25.6469L65.625 36.5844L95.3125 6.89688V21.875H98.4375ZM37.5 95.3125C36.6375 95.3125 35.9375 94.6125 35.9375 93.75V93.0172C37.1281 91.8953 38.1781 90.6313 39.0625 89.2469V92.1875H42.1875V89.0625H45.3125V92.1875H48.4375V89.0625H51.5625V92.1875H54.6875V89.0625H57.8125V92.1875H60.9375V89.0625H64.0625V92.1875H67.1875V89.0625H68.75C69.6125 89.0625 70.3125 89.7625 70.3125 90.625V93.75C70.3125 94.6125 69.6125 95.3125 68.75 95.3125H37.5ZM42.1328 79.6875H45.3125V82.8125H48.4375V79.6875H51.5625V82.8125H54.6875V79.6875H57.8125V82.8125H60.9375V79.6875H64.0625V82.8125H67.1875V79.6875H68.75C69.6125 79.6875 70.3125 80.3875 70.3125 81.25V84.375C70.3125 85.2375 69.6125 85.9375 68.75 85.9375H40.7656C41.5453 83.9859 42.0125 81.8844 42.1328 79.6875ZM79.6875 73.4375V70.3125H82.8125V73.4375H85.9375V70.3125H89.0625V73.4375H92.1875V70.3125H93.75C94.6125 70.3125 95.3125 71.0125 95.3125 71.875V75C95.3125 75.8625 94.6125 76.5625 93.75 76.5625H73.15C73.325 76.0719 73.4375 75.55 73.4375 75V71.875C73.4375 71.325 73.325 70.8031 73.15 70.3125H76.5625V73.4375H79.6875ZM95.3125 81.25V84.375C95.3125 85.2375 94.6125 85.9375 93.75 85.9375H73.15C73.325 85.4469 73.4375 84.925 73.4375 84.375V81.25C73.4375 80.7 73.325 80.1781 73.15 79.6875H76.5625V82.8125H79.6875V79.6875H82.8125V82.8125H85.9375V79.6875H89.0625V82.8125H92.1875V79.6875H93.75C94.6125 79.6875 95.3125 80.3875 95.3125 81.25ZM95.3125 93.75C95.3125 94.6125 94.6125 95.3125 93.75 95.3125H73.15C73.325 94.8219 73.4375 94.3 73.4375 93.75V90.625C73.4375 90.075 73.325 89.5531 73.15 89.0625H76.5625V92.1875H79.6875V89.0625H82.8125V92.1875H85.9375V89.0625H89.0625V92.1875H92.1875V89.0625H93.75C94.6125 89.0625 95.3125 89.7625 95.3125 90.625V93.75ZM82.8125 29.6875H89.0625V57.8125H82.8125V29.6875ZM67.1875 45.3125H73.4375V57.8125H67.1875V45.3125ZM62.5 60.9375H64.0625V64.0625H67.1875V60.9375H70.3125V64.0625H73.4375V60.9375H76.5625V64.0625H79.6875V60.9375H82.8125V64.0625H85.9375V60.9375H89.0625V64.0625H92.1875V60.9375H93.75C94.6125 60.9375 95.3125 61.6375 95.3125 62.5V65.625C95.3125 66.4875 94.6125 67.1875 93.75 67.1875H71.875H68.75H62.5C61.6375 67.1875 60.9375 66.4875 60.9375 65.625V62.5C60.9375 61.6375 61.6375 60.9375 62.5 60.9375ZM51.5625 39.0625H57.8125V62.5V65.625V67.1875H51.5625V39.0625ZM45.3125 70.3125V73.4375H48.4375V70.3125H51.5625V73.4375H54.6875V70.3125H57.8125V73.4375H60.9375V70.3125H62.5H64.0625V73.4375H67.1875V70.3125H68.75C69.6125 70.3125 70.3125 71.0125 70.3125 71.875V75C70.3125 75.8625 69.6125 76.5625 68.75 76.5625H42.0781C41.8531 74.3859 41.2703 72.2766 40.3656 70.3125H45.3125ZM39.0625 78.6047C39.0625 87.8172 31.5672 95.3125 22.3547 95.3125H21.3969C12.1828 95.3125 4.6875 87.8172 4.6875 78.6047C4.6875 73.7875 6.76719 69.2031 10.3922 66.0297L16.2125 60.9375H27.5375L33.3578 66.0297C36.9828 69.2031 39.0625 73.7875 39.0625 78.6047ZM35.3141 47.1875L27.3438 57.8125H16.4062L8.4375 47.1875C8.03438 46.65 7.8125 45.9844 7.8125 45.3125C7.8125 43.5891 9.21406 42.1875 10.9375 42.1875C11.5438 42.1875 11.8141 42.4391 12.4922 43.2156C13.2219 44.05 14.325 45.3125 16.4 45.3125C18.475 45.3125 19.5781 44.05 20.3094 43.2156C20.9891 42.4391 21.2594 42.1875 21.8656 42.1875C22.4734 42.1875 22.7453 42.4391 23.4266 43.2172C24.1578 44.0516 25.2609 45.3125 27.3391 45.3125C29.4156 45.3125 30.5188 44.0516 31.25 43.2172C31.9328 42.4391 32.2031 42.1875 32.8125 42.1875C34.5359 42.1875 35.9375 43.5891 35.9375 45.3125C35.9375 45.9844 35.7156 46.65 35.3141 47.1875V47.1875Z" fill="#FD8C3B"/>
</svg>
