<svg width="100" height="100" viewBox="0 0 100 100" fill="none" xmlns="http://www.w3.org/2000/svg">
<path d="M78.024 12.1891C77.4421 11.565 76.4351 11.5297 75.8111 12.1115C75.1871 12.6934 75.1517 13.7004 75.7336 14.3244C81.4666 20.4729 84.775 28.3822 85.1429 36.743H73.2574C73.0285 27.2377 70.7218 18.3359 66.7007 11.5309C65.205 8.99961 63.5308 6.85664 61.722 5.1291C64.723 6.18926 67.5818 7.66133 70.2306 9.52656C70.9281 10.018 71.9211 9.84551 72.4123 9.14805C72.9035 8.45059 72.7312 7.45762 72.0337 6.96641C65.5617 2.40918 57.9425 0 50 0C28.8923 0 11.7177 17.1594 11.6916 38.2607C11.6734 38.884 12.0418 39.4758 12.6089 39.7344L42.7714 53.4445H23.2777C22.413 53.4445 21.7119 54.1455 21.7119 55.0104V98.4342C21.7119 99.2988 22.4128 100 23.2777 100H76.7224C77.5871 100 78.2882 99.299 78.2882 98.4342V55.0104C78.2882 54.1457 77.5873 53.4445 76.7224 53.4445H57.2285L87.3912 39.7344C87.596 39.641 87.7812 39.5014 87.9279 39.3311C88.1812 39.0373 88.3201 38.6498 88.3086 38.2615C88.2964 28.5482 84.6455 19.2904 78.024 12.1891ZM64.0045 13.1242C67.7472 19.4582 69.9011 27.7951 70.1263 36.7432H59.9084C59.8207 27.4014 58.9494 18.6588 57.4314 11.9805C56.6896 8.71719 55.831 6.11563 54.8605 4.18066C58.2578 5.67227 61.4033 8.72207 64.0045 13.1242ZM50 3.13145C50.6146 3.13145 52.5988 4.8459 54.3781 12.6744C55.8464 19.135 56.6906 27.6316 56.7777 36.7432H43.2226C43.3097 27.6316 44.1537 19.135 45.6222 12.6744C47.4011 4.8459 49.3853 3.13145 50 3.13145ZM45.1392 4.18086C44.1687 6.11582 43.3097 8.71738 42.5683 11.9807C41.0505 18.659 40.1793 27.4016 40.0914 36.7434H29.8734C30.0986 27.7953 32.2525 19.4584 35.9953 13.1244C38.5964 8.72207 41.7419 5.67227 45.1392 4.18086ZM38.2613 5.1457C36.4587 6.87012 34.7904 9.00762 33.2994 11.5311C29.2783 18.3361 26.9714 27.2379 26.7425 36.7432H14.8568C15.4994 22.1406 25.0869 9.82266 38.2613 5.1457ZM20.4851 39.8748H27.7554L38.2568 47.9529L20.4851 39.8748ZM75.1566 56.5762V96.8684H24.8433V56.5762H43.4238V68.3715C43.4238 69.5963 44.8357 70.3561 45.858 69.6742L50 66.9129L54.1419 69.6742C55.165 70.3564 56.5761 69.5955 56.5761 68.3715V56.5762H75.1566ZM46.5552 65.4459V56.5762H53.4447V65.4459L50.8685 63.7283C50.3482 63.3816 49.6517 63.3814 49.1316 63.7283L46.5552 65.4459ZM50 53.0352L32.8916 39.8748H67.1084L50 53.0352ZM61.7429 47.9527L72.2443 39.8746H79.5146L61.7429 47.9527Z" fill="#FD8C3B"/>
<path d="M41.0862 88.9763L36.0758 83.966C35.4643 83.3544 34.4729 83.3544 33.8616 83.966L28.8512 88.9763C28.2397 89.5878 28.2397 90.5792 28.8512 91.1906C29.4627 91.8021 30.4541 91.8021 31.0655 91.1906L33.403 88.8531V93.4238C33.403 94.2884 34.104 94.9896 34.9688 94.9896C35.8336 94.9896 36.5346 94.2886 36.5346 93.4238V88.8531L38.8721 91.1906C39.5088 91.8275 40.584 91.7845 41.1696 91.1007C41.6944 90.488 41.6565 89.5462 41.0862 88.9763Z" fill="#FD8C3B"/>
<path d="M71.1489 88.9763L66.1385 83.966C65.527 83.3544 64.5356 83.3544 63.9243 83.966L58.9139 88.9763C58.3106 89.5794 58.3106 90.5874 58.9139 91.1906C59.517 91.7937 60.525 91.7937 61.1282 91.1906L63.4657 88.8531V93.4238C63.4657 94.2884 64.1666 94.9896 65.0315 94.9896C65.8963 94.9896 66.5973 94.2886 66.5973 93.4238V88.8531L68.9348 91.1906C69.5717 91.8275 70.6467 91.7845 71.2323 91.1007C71.7571 90.488 71.719 89.5462 71.1489 88.9763Z" fill="#FD8C3B"/>
<path d="M63.3612 71.8164H36.6389C35.7743 71.8164 35.0731 72.5174 35.0731 73.3822V80.0629C35.0731 80.9275 35.7741 81.6287 36.6389 81.6287H63.3612C64.2259 81.6287 64.927 80.9277 64.927 80.0629V73.3822C64.927 72.5176 64.2259 71.8164 63.3612 71.8164ZM61.7954 78.4971H38.2046V74.948H61.7954V78.4971Z" fill="#FD8C3B"/>
<path d="M63.3611 60.1252C62.4965 60.1252 61.7953 60.8262 61.7953 61.6911V65.0313C61.7953 65.8959 62.4963 66.5971 63.3611 66.5971C64.2259 66.5971 64.9269 65.8961 64.9269 65.0313V61.6911C64.9269 60.8264 64.2258 60.1252 63.3611 60.1252Z" fill="#FD8C3B"/>
<path d="M68.3716 60.1252C67.507 60.1252 66.8058 60.8262 66.8058 61.6911V65.0313C66.8058 65.8959 67.5068 66.5971 68.3716 66.5971C69.2365 66.5971 69.9374 65.8961 69.9374 65.0313V61.6911C69.9372 60.8264 69.2363 60.1252 68.3716 60.1252Z" fill="#FD8C3B"/>
<path d="M36.6389 60.1252C35.7743 60.1252 35.0731 60.8262 35.0731 61.6911V65.0313C35.0731 65.8959 35.7741 66.5971 36.6389 66.5971C37.5038 66.5971 38.2048 65.8961 38.2048 65.0313V61.6911C38.2046 60.8264 37.5036 60.1252 36.6389 60.1252Z" fill="#FD8C3B"/>
<path d="M31.6284 60.1252C30.7638 60.1252 30.0626 60.8262 30.0626 61.6911V65.0313C30.0626 65.8959 30.7636 66.5971 31.6284 66.5971C32.4933 66.5971 33.1943 65.8961 33.1943 65.0313V61.6911C33.1943 60.8264 32.4933 60.1252 31.6284 60.1252Z" fill="#FD8C3B"/>
</svg>
