<svg width="100" height="100" viewBox="0 0 100 100" fill="none" xmlns="http://www.w3.org/2000/svg">
<g clip-path="url(#clip0)">
<path d="M88.8133 30.5464L90.8582 28.1676L92.851 29.8811C93.1193 30.1119 93.4609 30.2375 93.8124 30.2375C93.8494 30.2375 93.8863 30.2361 93.9233 30.2334C94.3131 30.2039 94.6755 30.0208 94.9305 29.7242L98.0965 26.0417C98.6273 25.4242 98.5571 24.4932 97.9396 23.9624L87.0509 14.6012C86.7542 14.3462 86.3687 14.218 85.9786 14.2488C85.5887 14.2781 85.2264 14.4614 84.9714 14.7579L81.8054 18.4403C81.2746 19.0578 81.3448 19.9888 81.9623 20.5196L83.9551 22.233L81.7537 24.7937C77.2443 21.9134 72.1127 19.9249 66.6091 19.0805V14.6249H71.6874C74.0577 14.6249 75.9858 12.6966 75.9858 10.3263V6.89554C75.9858 4.52524 74.0575 2.59692 71.6874 2.59692H49.5332C47.1629 2.59692 45.2345 4.52524 45.2345 6.89554V10.3263C45.2345 12.6966 47.1629 14.6249 49.5332 14.6249H54.6117V19.0805C48.9996 19.9416 43.7749 21.9934 39.2017 24.9661L36.852 22.233L38.845 20.5196C39.1415 20.2646 39.3245 19.9023 39.354 19.5124C39.3833 19.1225 39.2567 18.7368 39.0017 18.4401L35.8357 14.7577C35.3047 14.1403 34.374 14.0699 33.7562 14.601L22.8677 23.9622C22.5713 24.2172 22.3882 24.5795 22.3587 24.9694C22.3294 25.3593 22.4561 25.745 22.7111 26.0417L25.877 29.7242C26.1686 30.0633 26.5811 30.2373 26.9957 30.2373C27.336 30.2373 27.6781 30.1201 27.9563 29.8809L29.9491 28.1676L32.1879 30.7715C30.2505 32.792 28.5265 35.0186 27.051 37.4137C27.0012 37.4086 26.9507 37.406 26.8994 37.406H17.5875C16.7731 37.406 16.1129 38.0662 16.1129 38.8805C16.1129 39.6949 16.7731 40.3551 17.5875 40.3551H25.4083C24.6319 41.8965 23.954 43.4953 23.3825 45.1437H8.48379C7.66944 45.1437 7.00924 45.8039 7.00924 46.6182C7.00924 47.4326 7.66944 48.0928 8.48379 48.0928H22.4873C21.9549 50.1367 21.5853 52.2453 21.3881 54.4033H1.47455C0.660206 54.4033 0 55.0635 0 55.8778C0 56.6922 0.660206 57.3524 1.47455 57.3524H21.2294C21.2257 57.5728 21.221 57.7928 21.221 58.0141C21.221 59.932 21.3615 61.8175 21.6277 63.6629H7.10754C6.29319 63.6629 5.63299 64.3231 5.63299 65.1374C5.63299 65.9518 6.29319 66.612 7.10754 66.612H22.1688C22.5345 68.2485 23.0014 69.8471 23.5645 71.4003H16.2112C15.3969 71.4003 14.7367 72.0605 14.7367 72.8749C14.7367 73.6892 15.3969 74.3494 16.2112 74.3494H24.7715C30.9902 87.9387 44.7151 97.4036 60.6106 97.4036C68.9127 97.4036 76.8531 94.8508 83.5735 90.0214C84.2347 89.5462 84.3857 88.6247 83.9105 87.9635C83.4347 87.3019 82.5136 87.1515 81.8524 87.6267C75.6367 92.0936 68.2912 94.4547 60.6106 94.4547C40.5172 94.4547 24.1701 78.1076 24.1701 58.0143C24.1701 37.9209 40.5172 21.5738 60.6106 21.5738C70.3373 21.5738 79.1862 25.4047 85.7279 31.6368C85.7413 31.6509 85.7562 31.6639 85.7702 31.6777C92.7173 38.3171 97.0509 47.6691 97.0509 58.0143C97.0509 67.7597 93.2525 76.9189 86.3551 83.8041C85.7786 84.3795 85.7778 85.313 86.3533 85.8895C86.9286 86.4657 87.8623 86.4667 88.4385 85.8912C95.8941 78.4487 100 68.5485 100 58.0141C100 47.3407 95.7311 37.6474 88.8133 30.5464V30.5464ZM86.2466 17.7986L94.899 25.2372L93.6557 26.6832L85.0032 19.2446L86.2466 17.7986ZM86.1917 24.1557L88.622 26.245L86.6756 28.5091C85.8754 27.8013 85.0476 27.1238 84.1916 26.4819L86.1917 24.1557ZM54.0893 11.6758V5.54603H56.4706V11.6758H54.0893ZM59.4197 5.54603H61.801V11.6758H59.4197V5.54603ZM64.7501 11.6758V5.54603H67.1316V11.6758H64.7501ZM73.0371 6.89554V10.3263C73.0371 11.0705 72.4318 11.6758 71.6878 11.6758H70.0809V5.54603H71.6878C72.4318 5.54603 73.0371 6.15138 73.0371 6.89554V6.89554ZM48.1838 10.3263V6.89554C48.1838 6.15138 48.7892 5.54603 49.5334 5.54603H51.1402V11.6758H49.5334C48.7892 11.6758 48.1838 11.0705 48.1838 10.3263V10.3263ZM27.1518 26.6834L25.9085 25.2374L34.5608 17.7988L35.8041 19.2448L33.8115 20.958C33.8115 20.958 33.8113 20.9582 33.8111 20.9582L29.1446 24.9702C29.1444 24.9704 29.1444 24.9704 29.1442 24.9706L27.1518 26.6834ZM32.2296 26.2071L34.6156 24.1557L36.7801 26.6732C35.9293 27.3216 35.1054 28.0033 34.3109 28.7173L32.1853 26.2452L32.2296 26.2071ZM57.5608 18.7415V14.6249H63.6602V18.7417C62.6535 18.6642 61.6365 18.6245 60.6104 18.6245C59.5843 18.6245 58.5674 18.6642 57.5608 18.7415Z" fill="#FD8C3B"/>
<path d="M48.261 31.1495C47.8837 30.4277 46.9926 30.1485 46.2711 30.5256C37.3062 35.2116 31.1748 43.9901 29.8694 54.008C27.6605 70.9586 39.6539 86.5462 56.6046 88.7549C57.9588 88.9315 59.3016 89.0172 60.6323 89.017C75.9576 89.0156 89.319 77.6161 91.3515 62.0197C92.4214 53.8084 90.2299 45.672 85.18 39.1091C80.1304 32.5464 72.8274 28.3427 64.6159 27.2726C60.6098 26.7504 56.6146 27.0022 52.7403 28.0203C51.9526 28.2273 51.482 29.0336 51.6888 29.8212C51.8958 30.6088 52.7025 31.0791 53.4897 30.8726C55.3453 30.3851 57.2325 30.0939 59.1357 29.9962V33.8703C59.1357 34.6847 59.7957 35.3449 60.6102 35.3449C61.4248 35.3449 62.0848 34.6847 62.0848 33.8703V29.9997C62.8006 30.0384 63.5175 30.1033 64.2351 30.1967C69.9776 30.945 75.2284 33.3884 79.4273 37.2008L76.7568 39.8711C76.1807 40.447 76.1807 41.3805 76.7566 41.9564C77.0446 42.2444 77.4219 42.3883 77.7994 42.3883C78.1767 42.3883 78.5542 42.2444 78.842 41.9564L81.5048 39.2935C81.968 39.8122 82.4145 40.3503 82.8429 40.9071C86.3687 45.4894 88.3529 50.9197 88.6312 56.5745H84.9736C84.159 56.5745 83.499 57.2347 83.499 58.049C83.499 58.8634 84.159 59.5236 84.9736 59.5236H88.6232C88.5843 60.227 88.5192 60.9323 88.4272 61.6381C87.6675 67.4673 85.1582 72.6475 81.4985 76.7216L78.9723 74.1954C78.3963 73.6195 77.4628 73.6195 76.8869 74.1954C76.3111 74.7712 76.3111 75.7049 76.8869 76.2806L79.4159 78.8095C74.7714 83.0032 68.7574 85.635 62.269 86.0168V82.412C62.269 81.5976 61.609 80.9374 60.7945 80.9374C59.9799 80.9374 59.3199 81.5976 59.3199 82.412V86.0348C58.5459 85.9987 57.7675 85.932 56.9858 85.83C51.2207 85.0787 46.0896 82.6168 42.0362 79.0225L44.6479 76.4107C45.2238 75.8349 45.2238 74.9014 44.6479 74.3255C44.072 73.7497 43.1384 73.7497 42.5627 74.3255L39.936 76.952C35.6795 72.2979 33.0021 66.2442 32.6091 59.7074H36.4313C37.2457 59.7074 37.9059 59.0472 37.9059 58.2329C37.9059 57.4185 37.2457 56.7583 36.4313 56.7583H32.5874C32.6232 55.9727 32.6903 55.1823 32.7937 54.3886C33.532 48.7242 35.9756 43.4974 39.6844 39.3383L42.4325 42.0863C42.7204 42.3743 43.0979 42.5183 43.4752 42.5183C43.8524 42.5183 44.2299 42.3743 44.5178 42.0863C45.0936 41.5105 45.0936 40.5768 44.5178 40.0011L41.7621 37.2455C43.5186 35.6492 45.4866 34.2627 47.6371 33.1387C48.3589 32.762 48.6382 31.871 48.261 31.1495V31.1495Z" fill="#FD8C3B"/>
<path d="M60.6106 44.4878C59.7961 44.4878 59.1361 45.148 59.1361 45.9623V54.7212C57.8788 55.2866 56.9998 56.5483 56.9998 58.014C56.9998 60.005 58.6196 61.6248 60.6106 61.6248C61.1564 61.6248 61.6723 61.4996 62.1367 61.2818L71.9743 71.1194C72.2624 71.4074 72.6396 71.5513 73.0171 71.5513C73.3944 71.5513 73.7719 71.4074 74.0599 71.1194C74.6358 70.5435 74.6358 69.6098 74.0599 69.0342L64.0699 59.044C64.1675 58.7172 64.2215 58.372 64.2215 58.014C64.2215 56.5485 63.3425 55.2866 62.0854 54.7214V45.9625C62.0852 45.148 61.425 44.4878 60.6106 44.4878V44.4878ZM59.9489 58.0138C59.9489 57.6489 60.2457 57.352 60.6106 57.352C60.9753 57.352 61.2722 57.6489 61.2722 58.0138C61.2722 58.3787 60.9753 58.6755 60.6106 58.6755C60.2455 58.6755 59.9489 58.3787 59.9489 58.0138Z" fill="#FD8C3B"/>
</g>
<defs>
<clipPath id="clip0">
<rect width="100" height="100" fill="white"/>
</clipPath>
</defs>
</svg>
