<svg width="100" height="100" fill="none" xmlns="http://www.w3.org/2000/svg"><path d="M23.438 73.438c.862 0 1.562.7 1.562 1.562h3.125a4.693 4.693 0 00-4.688-4.688v-3.124h-3.125v3.124h-4.687V75a4.693 4.693 0 004.688 4.688h3.125c.862 0 1.562.7 1.562 1.562v1.563h-4.688c-.862 0-1.562-.7-1.562-1.563h-3.125a4.693 4.693 0 004.688 4.688v3.124h3.125v-3.124h4.687V81.25a4.693 4.693 0 00-4.688-4.688h-3.125c-.862 0-1.562-.7-1.562-1.562v-1.563h4.688z" fill="#FD8C3B"/><path d="M98.438 21.875V1.562H78.124v3.125h14.978L65.625 32.166 54.687 21.228l-18.72 18.72a6.167 6.167 0 00-3.154-.886c-2.079 0-3.182 1.261-3.913 2.096-.681.778-.953 1.03-1.56 1.03-.61 0-.88-.252-1.563-1.03-.732-.835-1.835-2.096-3.911-2.096-2.075 0-3.178 1.263-3.91 2.097-.678.777-.95 1.029-1.556 1.029-.606 0-.877-.252-1.555-1.029-.73-.834-1.833-2.096-3.908-2.096a6.256 6.256 0 00-6.25 6.25c0 1.342.444 2.673 1.25 3.75l7.57 10.09-5.171 4.524a19.836 19.836 0 00-6.774 14.928c0 10.936 8.897 19.832 19.833 19.832h.958c3.955 0 7.633-1.176 10.73-3.178.633 1.843 2.364 3.178 4.417 3.178h56.25a4.693 4.693 0 004.688-4.687v-3.125a4.65 4.65 0 00-1.22-3.125 4.65 4.65 0 001.22-3.125V81.25a4.65 4.65 0 00-1.22-3.125A4.65 4.65 0 0098.439 75v-3.125a4.65 4.65 0 00-1.22-3.125 4.65 4.65 0 001.22-3.125V62.5a4.693 4.693 0 00-4.688-4.688h-1.563v-31.25h-12.5v31.25h-3.124V42.188h-12.5v15.624H62.5a4.64 4.64 0 00-1.563.288V35.937h-12.5v31.25h-9.889a19.788 19.788 0 00-3.134-3.51l-5.17-4.524 7.57-10.09a6.304 6.304 0 001.248-3.75 6.167 6.167 0 00-.885-3.155l16.51-16.511 10.938 10.937L95.313 6.897v14.978h3.124zM37.5 95.313c-.862 0-1.563-.7-1.563-1.563v-.733a19.898 19.898 0 003.126-3.77v2.94h3.124v-3.124h3.126v3.124h3.124v-3.124h3.126v3.124h3.124v-3.124h3.126v3.124h3.124v-3.124h3.126v3.124h3.124v-3.124h1.563c.862 0 1.563.7 1.563 1.562v3.125c0 .862-.7 1.563-1.563 1.563H37.5zm4.633-15.626h3.18v3.126h3.124v-3.126h3.126v3.126h3.124v-3.126h3.126v3.126h3.124v-3.126h3.126v3.126h3.124v-3.126h1.563c.862 0 1.563.7 1.563 1.563v3.125c0 .862-.7 1.563-1.563 1.563H40.766a19.715 19.715 0 001.367-6.25zm37.554-6.25v-3.124h3.126v3.124h3.124v-3.124h3.126v3.124h3.124v-3.124h1.563c.862 0 1.563.7 1.563 1.562V75c0 .862-.7 1.563-1.563 1.563h-20.6A4.639 4.639 0 0073.437 75v-3.125c0-.55-.112-1.072-.287-1.563h3.412v3.126h3.126zm15.626 7.813v3.125c0 .862-.7 1.563-1.563 1.563h-20.6a4.639 4.639 0 00.287-1.563V81.25c0-.55-.112-1.072-.287-1.563h3.412v3.126h3.126v-3.126h3.124v3.126h3.126v-3.126h3.124v3.126h3.126v-3.126h1.562c.862 0 1.563.7 1.563 1.563zm0 12.5c0 .862-.7 1.563-1.563 1.563h-20.6a4.639 4.639 0 00.287-1.563v-3.125c0-.55-.112-1.072-.287-1.563h3.412v3.126h3.126v-3.126h3.124v3.126h3.126v-3.126h3.124v3.126h3.126v-3.126h1.562c.862 0 1.563.7 1.563 1.563v3.125zm-12.5-64.063h6.25v28.125h-6.25V29.689zM67.186 45.313h6.25v12.5h-6.25v-12.5zM62.5 60.938h1.563v3.124h3.124v-3.124h3.126v3.124h3.124v-3.124h3.126v3.124h3.124v-3.124h3.126v3.124h3.124v-3.124h3.126v3.124h3.124v-3.124h1.563c.862 0 1.563.7 1.563 1.562v3.125c0 .862-.7 1.563-1.563 1.563H62.5c-.862 0-1.563-.7-1.563-1.563V62.5c0-.862.7-1.563 1.563-1.563zM51.562 39.061h6.25v28.128h-6.25V39.061zm-6.25 31.25v3.126h3.126v-3.126h3.124v3.126h3.126v-3.126h3.124v3.126h3.126v-3.126h3.125v3.126h3.124v-3.126h1.563c.862 0 1.563.7 1.563 1.563V75c0 .862-.7 1.563-1.563 1.563H42.078a19.802 19.802 0 00-1.712-6.25h4.947zm-6.25 8.293c0 9.212-7.495 16.707-16.707 16.707h-.958c-9.214 0-16.71-7.495-16.71-16.707 0-4.818 2.08-9.402 5.705-12.575l5.82-5.093h11.326l5.82 5.093a16.715 16.715 0 015.705 12.575zm-3.748-31.418l-7.97 10.626H16.406L8.438 47.187a3.144 3.144 0 01-.626-1.874 3.128 3.128 0 013.125-3.126c.607 0 .877.252 1.555 1.029.73.834 1.833 2.096 3.908 2.096s3.178-1.262 3.91-2.096c.68-.777.95-1.029 1.556-1.029.607 0 .88.252 1.56 1.03.732.835 1.835 2.096 3.913 2.096 2.077 0 3.18-1.261 3.911-2.096.683-.778.953-1.03 1.563-1.03a3.128 3.128 0 012.501 5z" fill="#FD8C3B"/></svg>