<svg width="89" height="89" fill="none" xmlns="http://www.w3.org/2000/svg"><g clip-path="url(#clip0)" fill="#FD8C3B"><path d="M38.5 83.785h-9.645a2.608 2.608 0 000 5.215h31.29a2.608 2.608 0 000-5.215H50.5c3.248-3.492 7.954-8.835 12.557-15.072C73.132 55.065 78.24 43.351 78.24 33.896 78.24 15.297 63.11.092 44.513 0h-.026C25.89.092 10.76 15.297 10.76 33.896c0 9.455 5.108 21.17 15.182 34.817 4.604 6.237 9.31 11.58 12.558 15.072zm6-78.57c15.73.084 28.525 12.948 28.525 28.681 0 8.2-4.897 19.168-14.163 31.72-5.675 7.688-11.493 13.957-14.362 16.92-2.87-2.963-8.687-9.232-14.362-16.92-9.266-12.552-14.163-23.52-14.163-31.72C15.975 18.163 28.769 5.3 44.5 5.215z"/><path d="M67.967 33.896c0-12.94-10.527-23.467-23.467-23.467S21.033 20.956 21.033 33.896 31.56 57.363 44.5 57.363s23.467-10.527 23.467-23.467zm-31.29 16.489v-.844c0-4.313 3.51-7.822 7.823-7.822 4.313 0 7.822 3.509 7.822 7.822v.844a18.143 18.143 0 01-7.822 1.763c-2.798 0-5.45-.633-7.822-1.763zm-10.43-16.489c0-10.064 8.189-18.252 18.253-18.252s18.252 8.188 18.252 18.252c0 5.096-2.1 9.71-5.48 13.025-1.216-5.938-6.48-10.417-12.772-10.417s-11.557 4.48-12.773 10.417c-3.379-3.315-5.48-7.929-5.48-13.025z"/><path d="M52.322 28.681c0-4.313-3.509-7.822-7.822-7.822-4.313 0-7.822 3.509-7.822 7.822 0 4.313 3.509 7.822 7.822 7.822 4.313 0 7.822-3.508 7.822-7.822zM44.5 31.29a2.61 2.61 0 01-2.607-2.608 2.61 2.61 0 012.607-2.607 2.61 2.61 0 012.607 2.607A2.61 2.61 0 0144.5 31.29z"/></g><defs><clipPath id="clip0"><path fill="#fff" d="M0 0h89v89H0z"/></clipPath></defs></svg>