<svg width="100" height="100" fill="none" xmlns="http://www.w3.org/2000/svg"><g clip-path="url(#clip0)" fill="#FD8C3B"><path d="M23.333 68.333a5 5 0 100 10 5 5 0 000-10zm0 6.667a1.667 1.667 0 110-3.333 1.667 1.667 0 010 3.333zm53.334-6.667a5 5 0 100 10 5 5 0 000-10zm0 6.667a1.667 1.667 0 110-3.333 1.667 1.667 0 010 3.333z"/><path d="M98.73 44.61L87.249 31.68A5 5 0 0083.5 30H68.333V20a5.005 5.005 0 00-5-5H5a5.005 5.005 0 00-5 5v43.333A1.666 1.666 0 001.667 65h1.666v5a5.005 5.005 0 005 5H11.8a11.651 11.651 0 0023.067 0h30.266a11.651 11.651 0 0023.068 0H95a5.005 5.005 0 005-5V47.933a4.995 4.995 0 00-1.27-3.324zM3.333 61.666V20A1.668 1.668 0 015 18.333h58.333C64.253 18.334 65 19.08 65 20v41.667H3.333zm8.467 10H8.333A1.668 1.668 0 016.667 70v-5h8.517a11.636 11.636 0 00-3.384 6.667zm11.533 10a8.333 8.333 0 118.334-8.334 8.343 8.343 0 01-8.334 8.334zm16.667-10h-5.133A11.635 11.635 0 0031.482 65H40v6.667zm15 0H43.333V65H55v6.667zm10.133 0h-6.8V65h10.185a11.636 11.636 0 00-3.385 6.667zm11.534 10A8.333 8.333 0 1185 73.333a8.343 8.343 0 01-8.333 8.334zm20-11.667A1.668 1.668 0 0195 71.667h-6.8a11.675 11.675 0 00-11.533-10h-8.334V33.333H75V50a5.005 5.005 0 005 5h16.667v15zm0-18.333H80A1.668 1.668 0 0178.333 50V33.333H83.5c.479-.002.935.2 1.254.557L96.24 46.825c.273.304.425.699.427 1.108v3.734z"/></g><defs><clipPath id="clip0"><path fill="#fff" d="M0 0h100v100H0z"/></clipPath></defs></svg>