<svg width="89" height="89" viewBox="0 0 89 89" fill="none" xmlns="http://www.w3.org/2000/svg">
<g clip-path="url(#clip0)">
<path d="M38.4998 83.7851H28.8554C27.4154 83.7851 26.248 84.9526 26.248 86.3926C26.248 87.8326 27.4154 89 28.8554 89H60.1446C61.5846 89 62.7521 87.8326 62.7521 86.3926C62.7521 84.9526 61.5846 83.7851 60.1446 83.7851H50.5003C53.7476 80.2934 58.454 74.9503 63.0575 68.7133C73.1318 55.0652 78.2399 43.3509 78.2399 33.8962C78.2399 15.2975 63.11 0.091608 44.5127 0C44.5042 0 44.4955 0 44.4872 0C25.89 0.091608 10.7601 15.2975 10.7601 33.8962C10.7601 43.3511 15.8683 55.0652 25.9425 68.7133C30.5461 74.9503 35.2525 80.2936 38.4998 83.7851V83.7851ZM44.5 5.21487C60.2307 5.29866 73.025 18.1625 73.025 33.8962C73.025 42.0952 68.1276 53.0638 58.862 65.6163C53.1873 73.3039 47.3694 79.5734 44.5 82.5362C41.6306 79.5734 35.8127 73.3041 30.1381 65.6163C20.8725 53.0638 15.975 42.0952 15.975 33.8962C15.975 18.1625 28.7693 5.29866 44.5 5.21487V5.21487Z" fill="#FD8C3B"/>
<path d="M67.9668 33.8961C67.9668 20.9565 57.4396 10.4292 44.4999 10.4292C31.5602 10.4292 21.033 20.9565 21.033 33.8961C21.033 46.8358 31.5602 57.3631 44.4999 57.3631C57.4396 57.3631 67.9668 46.836 67.9668 33.8961ZM36.6776 50.3849V49.5409C36.6776 45.2277 40.1867 41.7186 44.4999 41.7186C48.8131 41.7186 52.3222 45.2277 52.3222 49.5409V50.3849C49.95 51.5148 47.2977 52.1484 44.4999 52.1484C41.7021 52.1484 39.0497 51.5148 36.6776 50.3849ZM26.2478 33.8961C26.2478 23.8319 34.4357 15.6441 44.4999 15.6441C54.5641 15.6441 62.752 23.8319 62.752 33.8961C62.752 38.9923 60.6517 43.6062 57.2725 46.9208C56.0564 40.9835 50.7915 36.5036 44.4999 36.5036C38.2083 36.5036 32.9434 40.9833 31.7273 46.9208C28.348 43.6064 26.2478 38.9923 26.2478 33.8961Z" fill="#FD8C3B"/>
<path d="M52.3223 28.6811C52.3223 24.368 48.8132 20.8589 44.5 20.8589C40.1868 20.8589 36.6777 24.368 36.6777 28.6811C36.6777 32.9943 40.1868 36.5034 44.5 36.5034C48.8132 36.5034 52.3223 32.9945 52.3223 28.6811ZM44.5 31.2886C43.0623 31.2886 41.8926 30.1189 41.8926 28.6811C41.8926 27.2434 43.0623 26.0737 44.5 26.0737C45.9377 26.0737 47.1074 27.2434 47.1074 28.6811C47.1074 30.1189 45.9377 31.2886 44.5 31.2886Z" fill="#FD8C3B"/>
</g>
<defs>
<clipPath id="clip0">
<rect width="89" height="89" fill="white"/>
</clipPath>
</defs>
</svg>
