<svg width="100" height="100" fill="none" xmlns="http://www.w3.org/2000/svg"><path d="M60.938 78.125h-3.126V75h3.126v3.125zm-6.25 0h-3.126V75h3.126v3.125zm-6.25 0h-3.126V75h3.126v3.125zm-6.25 0h-3.126V75h3.126v3.125zm39.062-6.25h-3.125V68.75h3.125v3.125zm-6.25 0H48.437V68.75H75v3.125zm-29.688 0H18.75V68.75h26.563v3.125z" fill="#FD8C3B"/><path d="M93.75 87.5V42.187a4.688 4.688 0 00-4.688-4.687H78.126V21.875h12.5V7.812A7.822 7.822 0 0082.812 0H29.688a7.822 7.822 0 00-7.813 7.813V37.5H10.937a4.688 4.688 0 00-4.687 4.688V87.5H0v4.688A7.822 7.822 0 007.813 100h84.374A7.822 7.822 0 00100 92.187V87.5h-6.25zM78.125 7.812a4.688 4.688 0 019.375 0V18.75h-9.375V7.812zM25 7.813a4.688 4.688 0 014.688-4.687h46.915A7.736 7.736 0 0075 7.813V62.5H25V7.812zm56.25 57.813V62.5h-3.125V46.875h6.25V81.25h-68.75V46.875h6.25V62.5H18.75v3.125h62.5zM9.375 42.187c0-.862.7-1.562 1.563-1.562h10.937v3.125H12.5v40.625h75V43.75h-9.375v-3.125h10.938c.862 0 1.562.7 1.562 1.563V87.5H56.25v1.563c0 .862-.7 1.562-1.563 1.562h-9.374c-.863 0-1.563-.7-1.563-1.563V87.5H9.375V42.187zm87.5 50a4.688 4.688 0 01-4.688 4.688H7.814a4.688 4.688 0 01-4.688-4.688v-1.562h37.767a4.697 4.697 0 004.42 3.125h9.376a4.697 4.697 0 004.42-3.125h37.767v1.563z" fill="#FD8C3B"/><path d="M28.125 18.75h43.75V9.375h-43.75v9.375zm3.125-6.25h37.5v3.125h-37.5V12.5zm-3.125 46.875h43.75v-31.25h-43.75v31.25zm25-28.125H68.75v6.25H53.125v-6.25zm0 9.375H68.75V56.25H53.125V40.625zM42.187 31.25H50v6.25h-7.813v-6.25zm0 9.375H50V56.25h-7.813V40.625zM31.25 31.25h7.813v6.25H31.25v-6.25zm0 9.375h7.813V56.25H31.25V40.625zm-3.125-18.75H50V25H28.125v-3.125zM0 0h3.125v18.75H0V0zm6.25 0h3.125v12.5H6.25V0zm6.25 0h3.125v6.25H12.5V0z" fill="#FD8C3B"/></svg>