<svg width="100" height="100" viewBox="0 0 100 100" fill="none" xmlns="http://www.w3.org/2000/svg">
<path d="M60.9375 78.125H57.8125V75H60.9375V78.125ZM54.6875 78.125H51.5625V75H54.6875V78.125ZM48.4375 78.125H45.3125V75H48.4375V78.125ZM42.1875 78.125H39.0625V75H42.1875V78.125Z" fill="#FD8C3B"/>
<path d="M81.25 71.875H78.125V68.75H81.25V71.875ZM75 71.875H48.4375V68.75H75V71.875ZM45.3125 71.875H18.75V68.75H45.3125V71.875Z" fill="#FD8C3B"/>
<path d="M93.75 87.5V42.1875C93.75 39.5988 91.6512 37.5 89.0625 37.5H78.125V21.875H90.625V7.8125C90.6197 3.4996 87.1254 0.00534059 82.8125 0H29.6875C25.3746 0.00534059 21.8803 3.4996 21.875 7.8125V37.5H10.9375C8.34885 37.5 6.25 39.5988 6.25 42.1875V87.5H0V92.1875C0.00534059 96.5004 3.4996 99.9947 7.8125 100H92.1875C96.5004 99.9947 99.9947 96.5004 100 92.1875V87.5H93.75ZM78.125 7.8125C78.125 5.22385 80.2238 3.125 82.8125 3.125C85.4012 3.125 87.5 5.22385 87.5 7.8125V18.75H78.125V7.8125ZM25 7.8125C25 5.22385 27.0988 3.125 29.6875 3.125H76.6029C75.5692 4.4693 75.0061 6.11649 75 7.8125V62.5H25V7.8125ZM81.25 65.625V62.5H78.125V46.875H84.375V81.25H15.625V46.875H21.875V62.5H18.75V65.625H81.25ZM9.375 42.1875C9.375 41.3246 10.0746 40.625 10.9375 40.625H21.875V43.75H12.5V84.375H87.5V43.75H78.125V40.625H89.0625C89.9254 40.625 90.625 41.3246 90.625 42.1875V87.5H56.25V89.0625C56.25 89.9254 55.5504 90.625 54.6875 90.625H45.3125C44.4496 90.625 43.75 89.9254 43.75 89.0625V87.5H9.375V42.1875ZM96.875 92.1875C96.875 94.7762 94.7762 96.875 92.1875 96.875H7.8125C5.22385 96.875 3.125 94.7762 3.125 92.1875V90.625H40.892C41.5565 92.4965 43.3266 93.7477 45.3125 93.75H54.6875C56.6734 93.7477 58.4435 92.4965 59.108 90.625H96.875V92.1875Z" fill="#FD8C3B"/>
<path d="M28.125 18.75H71.875V9.375H28.125V18.75ZM31.25 12.5H68.75V15.625H31.25V12.5Z" fill="#FD8C3B"/>
<path d="M28.125 59.375H71.875V28.125H28.125V59.375ZM53.125 31.25H68.75V37.5H53.125V31.25ZM53.125 40.625H68.75V56.25H53.125V40.625ZM42.1875 31.25H50V37.5H42.1875V31.25ZM42.1875 40.625H50V56.25H42.1875V40.625ZM31.25 31.25H39.0625V37.5H31.25V31.25ZM31.25 40.625H39.0625V56.25H31.25V40.625Z" fill="#FD8C3B"/>
<path d="M28.125 21.875H50V25H28.125V21.875Z" fill="#FD8C3B"/>
<path d="M0 0H3.125V18.75H0V0Z" fill="#FD8C3B"/>
<path d="M6.25 0H9.375V12.5H6.25V0Z" fill="#FD8C3B"/>
<path d="M12.5 0H15.625V6.25H12.5V0Z" fill="#FD8C3B"/>
</svg>
