<svg width="100" height="100" fill="none" xmlns="http://www.w3.org/2000/svg"><g clip-path="url(#clip0)" fill="#FD8C3B"><path d="M88.813 30.546l2.045-2.378 1.993 1.713a1.474 1.474 0 002.08-.157l3.166-3.682c.53-.618.46-1.549-.157-2.08l-10.89-9.36a1.474 1.474 0 00-2.08.157l-3.165 3.681c-.53.618-.46 1.549.157 2.08l1.993 1.713-2.201 2.56a39.135 39.135 0 00-15.145-5.712v-4.456h5.078a4.303 4.303 0 004.299-4.299v-3.43a4.303 4.303 0 00-4.299-4.3H49.533a4.304 4.304 0 00-4.299 4.3v3.43a4.303 4.303 0 004.3 4.299h5.078v4.456a39.143 39.143 0 00-15.41 5.885l-2.35-2.733 1.993-1.713a1.475 1.475 0 00.157-2.08l-3.166-3.682a1.475 1.475 0 00-2.08-.157l-10.888 9.361a1.476 1.476 0 00-.157 2.08l3.166 3.682a1.471 1.471 0 002.08.157l1.992-1.713 2.239 2.604a39.64 39.64 0 00-5.137 6.642c-.05-.005-.1-.008-.152-.008h-9.312a1.475 1.475 0 100 2.95h7.821a39.156 39.156 0 00-2.026 4.788H8.485a1.475 1.475 0 000 2.949h14.003a39.162 39.162 0 00-1.099 6.31H1.475a1.475 1.475 0 000 2.95h19.754c-.003.22-.008.44-.008.661 0 1.918.14 3.803.407 5.649H7.108a1.475 1.475 0 000 2.949h15.06a39 39 0 001.396 4.788h-7.353a1.475 1.475 0 000 2.95h8.56c6.22 13.589 19.944 23.054 35.84 23.054 8.302 0 16.242-2.553 22.962-7.383a1.475 1.475 0 00-1.72-2.394c-6.216 4.467-13.562 6.828-21.242 6.828-20.094 0-36.44-16.347-36.44-36.44 0-20.094 16.346-36.441 36.44-36.441 9.726 0 18.575 3.83 25.117 10.063.013.014.028.027.042.04 6.947 6.64 11.28 15.992 11.28 26.337 0 9.746-3.797 18.905-10.695 25.79a1.474 1.474 0 102.084 2.087C95.894 78.45 100 68.548 100 58.014c0-10.673-4.269-20.367-11.187-27.468zM86.247 17.8l8.652 7.438-1.243 1.446-8.653-7.438 1.244-1.446zm-.055 6.357l2.43 2.089-1.946 2.264a39.705 39.705 0 00-2.484-2.027l2-2.326zm-32.103-12.48v-6.13h2.382v6.13h-2.382zm5.33-6.13h2.382v6.13H59.42v-6.13zm5.331 6.13v-6.13h2.382v6.13H64.75zm8.287-4.78v3.43a1.35 1.35 0 01-1.35 1.35h-1.606v-6.13h1.607c.744 0 1.35.605 1.35 1.35zm-24.853 3.43v-3.43c0-.745.605-1.35 1.35-1.35h1.606v6.13h-1.607c-.744 0-1.35-.606-1.35-1.35zM27.152 26.683l-1.244-1.446 8.653-7.438 1.243 1.446-1.992 1.713-4.667 4.012-1.993 1.713zm5.078-.476l2.386-2.051 2.164 2.517c-.85.649-1.675 1.33-2.47 2.044l-2.125-2.472.045-.038zm25.33-7.466v-4.116h6.1v4.117a39.726 39.726 0 00-6.1 0z"/><path d="M48.261 31.15a1.475 1.475 0 00-1.99-.624A31.054 31.054 0 0029.87 54.008c-2.209 16.95 9.785 32.538 26.736 34.747a31.08 31.08 0 004.027.262c15.326-.001 28.687-11.4 30.72-26.997 1.07-8.212-1.122-16.348-6.172-22.91-5.05-6.564-12.353-10.767-20.564-11.837a30.827 30.827 0 00-11.876.747 1.475 1.475 0 00.75 2.853 27.799 27.799 0 015.646-.877v3.874a1.474 1.474 0 102.949 0V30c.716.038 1.432.103 2.15.197 5.743.748 10.993 3.191 15.192 7.004l-2.67 2.67a1.474 1.474 0 102.085 2.085l2.663-2.663c.463.52.91 1.057 1.338 1.614 3.526 4.582 5.51 10.013 5.788 15.668h-3.657a1.474 1.474 0 100 2.949h3.65a28.559 28.559 0 01-.197 2.114A27.893 27.893 0 0181.5 76.722l-2.527-2.527a1.475 1.475 0 00-2.085 2.086l2.529 2.528c-4.645 4.194-10.659 6.826-17.147 7.208v-3.605a1.474 1.474 0 10-2.95 0v3.623a28.176 28.176 0 01-2.333-.205 27.893 27.893 0 01-14.95-6.808l2.612-2.611a1.474 1.474 0 10-2.085-2.085l-2.627 2.626c-4.257-4.654-6.934-10.708-7.327-17.245h3.822a1.475 1.475 0 100-2.949h-3.844a28.07 28.07 0 017.097-17.42l2.748 2.748a1.47 1.47 0 001.043.432 1.474 1.474 0 001.043-2.517l-2.756-2.755a28.062 28.062 0 015.875-4.107 1.474 1.474 0 00.624-1.99z"/><path d="M60.61 44.488c-.814 0-1.474.66-1.474 1.474v8.76A3.614 3.614 0 0057 58.013c0 1.991 1.62 3.61 3.61 3.61.546 0 1.062-.124 1.527-.342l9.837 9.837a1.47 1.47 0 001.043.432 1.474 1.474 0 001.043-2.517l-9.99-9.99a3.58 3.58 0 00.152-1.03 3.613 3.613 0 00-2.137-3.293v-8.758c0-.815-.66-1.475-1.474-1.475zm-.661 13.526a.662.662 0 111.325.001.662.662 0 01-1.325-.001z"/></g><defs><clipPath id="clip0"><path fill="#fff" d="M0 0h100v100H0z"/></clipPath></defs></svg>